<?xml version="1.0" encoding="UTF-8" standalone="no"?>
<svg
   xmlns:dc="http://purl.org/dc/elements/1.1/"
   xmlns:cc="http://creativecommons.org/ns#"
   xmlns:rdf="http://www.w3.org/1999/02/22-rdf-syntax-ns#"
   xmlns:svg="http://www.w3.org/2000/svg"
   xmlns="http://www.w3.org/2000/svg"
   xmlns:sodipodi="http://sodipodi.sourceforge.net/DTD/sodipodi-0.dtd"
   xmlns:inkscape="http://www.inkscape.org/namespaces/inkscape"
   version="1.1"
   x="0px"
   y="0px"
   viewBox="0 0 45 60"
   xml:space="preserve"
   id="svg16"
   sodipodi:docname="data-collection.svg"
   width="45"
   height="60"
   inkscape:version="0.92.2 (5c3e80d, 2017-08-06)"><metadata
     id="metadata22"><rdf:RDF><cc:Work
         rdf:about=""><dc:format>image/svg+xml</dc:format><dc:type
           rdf:resource="http://purl.org/dc/dcmitype/StillImage" /><dc:title /></cc:Work></rdf:RDF></metadata><defs
     id="defs20" /><sodipodi:namedview
     pagecolor="#ffffff"
     bordercolor="#666666"
     borderopacity="1"
     objecttolerance="10"
     gridtolerance="10"
     guidetolerance="10"
     inkscape:pageopacity="0"
     inkscape:pageshadow="2"
     inkscape:window-width="1920"
     inkscape:window-height="1001"
     id="namedview18"
     showgrid="false"
     fit-margin-top="0"
     fit-margin-left="0"
     fit-margin-right="0"
     fit-margin-bottom="0"
     inkscape:zoom="8.9001174"
     inkscape:cx="26.849319"
     inkscape:cy="28.57794"
     inkscape:window-x="-9"
     inkscape:window-y="-9"
     inkscape:window-maximized="1"
     inkscape:current-layer="g8" /><g
     id="g10"
     transform="translate(-8)"><g
       id="g8"><path
         d="M 50,26 H 48 V 16 c 0,-1.7 -1.3,-3 -3,-3 H 40 C 40,10.8 38.2,9 36,9 H 35 V 7 C 35,3.1 31.9,0 28,0 24.1,0 21,3.1 21,7 v 2 h -1 c -2.2,0 -4,1.8 -4,4 h -5 c -1.7,0 -3,1.3 -3,3 v 41 c 0,1.7 1.3,3 3,3 h 34 c 1.7,0 3,-1.3 3,-3 v -9 h 2 c 1.7,0 3,-1.3 3,-3 V 29 c 0,-1.7 -1.3,-3 -3,-3 z M 45,15 c 0.6,0 1,0.4 1,1 v 10 h -2 v -8 c 0,-0.6 -0.4,-1 -1,-1 -2.560497,0.05437 -3,0.528548 -3,-2 z M 18,13 c 0,-1.1 0.9,-2 2,-2 h 2 c 0.6,0 1,-0.4 1,-1 V 7 c 0,-2.8 2.2,-5 5,-5 2.8,0 5,2.2 5,5 v 3 c 0,0.6 0.4,1 1,1 h 2 c 1.1,0 2,0.9 2,2 v 6 H 18 Z m 21,8 c 0.6,0 1,-0.4 1,-1 -0.212234,-1.464881 0.800928,-1 2,-1 v 7 H 28 c -1.7,0 -3,1.3 -3,3 v 16 c 0,1.7 1.3,3 3,3 h 14 v 6 H 14 V 19 h 2 v 1 c 0,0.6 0.4,1 1,1 z m 7,36 c 0,0.6 -0.4,1 -1,1 H 11 c -0.6,0 -1,-0.4 -1,-1 V 16 c 0,-0.6 0.4,-1 1,-1 h 5 v 2 h -3 c -0.6,0 -1,0.4 -1,1 v 37 c 0,0.6 0.4,1 1,1 h 30 c 0.6,0 1,-0.4 1,-1 v -7 h 2 z m 5,-12 c 0,0.6 -0.4,1 -1,1 H 28 c -0.6,0 -1,-0.4 -1,-1 V 29 c 0,-0.6 0.4,-1 1,-1 h 22 c 0.6,0 1,0.4 1,1 z"
         id="path2"
         inkscape:connector-curvature="0"
         style="fill:#ffffff"
         sodipodi:nodetypes="scsscscssscscsssssscssssssccsccssssssssssssccsscccsssscccccsssssssssccssssssccssssssssss" /><path
         d="m 31.832369,38.122037 4.406753,3.683153 c 0.518442,0.441979 1.036883,0.441979 1.555325,0 l 10.36883,-8.839568 c 0.518441,-0.441978 0.648052,-1.473261 0.259221,-2.062566 -0.388831,-0.589304 -1.296104,-0.17484 -1.814546,0.267138 l -9.591168,7.688474 -4.406753,-3.683154 c -0.518441,-0.441978 -1.166493,-0.441978 -1.555324,0 l -4.294395,5.628209 c -0.08895,7.938091 -1.329018,2.559913 5.072057,-2.681686 z"
         id="path4"
         inkscape:connector-curvature="0"
         style="fill:#ffffff;stroke-width:1.38184643"
         sodipodi:nodetypes="ccssscccccc" /><path
         d="m 28,4 c -1.7,0 -3,1.3 -3,3 0,1.7 1.3,3 3,3 1.7,0 3,-1.3 3,-3 0,-1.7 -1.3,-3 -3,-3 z m 0,4 c -0.6,0 -1,-0.4 -1,-1 0,-0.6 0.4,-1 1,-1 0.6,0 1,0.4 1,1 0,0.6 -0.4,1 -1,1 z"
         id="path6"
         inkscape:connector-curvature="0"
         style="fill:#ffffff" /></g></g></svg>