<?xml version="1.0" encoding="utf-8"?>
<!-- Generator: Adobe Illustrator 16.0.0, SVG Export Plug-In . SVG Version: 6.00 Build 0)  -->
<!DOCTYPE svg PUBLIC "-//W3C//DTD SVG 1.1//EN" "http://www.w3.org/Graphics/SVG/1.1/DTD/svg11.dtd">
<svg version="1.1" id="Layer_1" xmlns="http://www.w3.org/2000/svg" xmlns:xlink="http://www.w3.org/1999/xlink" x="0px" y="0px"
	 width="310.484px" height="529.474px" viewBox="0 0 310.484 529.474" enable-background="new 0 0 310.484 529.474"
	 xml:space="preserve">
<path fill-rule="evenodd" clip-rule="evenodd" fill="#2C2C2C" d="M300.256,263.223c0,68.651,0.042,137.302-0.023,205.953
	c-0.022,23.023-15.807,41.409-38.102,45.947c-1.604,0.327-3.323,0.098-4.988,0.098c-67.652,0.003-135.304,0.039-202.955-0.026
	c-14.449-0.015-25.116-7.315-33.788-18.263c-6.76-8.534-8.95-18.303-8.945-28.983c0.07-137.47,0.103-274.939-0.008-412.408
	C11.428,31.5,33.962,11.219,55.425,11.348c66.982,0.401,133.97,0.323,200.954,0.027c17.419-0.077,35.549,13.629,40.729,29.6
	c1.89,5.826,2.998,12.177,3.017,18.294C300.333,127.252,300.256,195.238,300.256,263.223z M30.463,425.097
	c83.897,0,167.277,0,250.659,0c0-110.055,0-219.764,0-329.475c-83.726,0-167.105,0-250.659,0
	C30.463,205.559,30.463,315.149,30.463,425.097z M281.544,443.537c-84.149,0-167.487,0-251.254,0c0,8.422-0.482,16.581,0.12,24.659
	c0.785,10.538,5.655,18.842,15.127,24.366c6.538,3.813,13.646,4.74,20.798,4.779c36.298,0.2,72.598,0.215,108.896,0.051
	c26.077-0.119,52.158-0.379,78.225-1.076c10.526-0.282,18.444-5.729,23.686-15.104C283.814,469.273,280.694,456.424,281.544,443.537
	z M29.348,77.186c85.004,0,168.343,0,252.109,0c0-6.416,0.763-12.66-0.166-18.64c-1.717-11.053-6.06-21.097-17.527-25.308
	c-5.863-2.152-12.311-3.736-18.508-3.784c-41.792-0.325-83.587-0.275-125.381-0.125c-20.583,0.074-41.169,0.458-61.746,1.015
	c-11.93,0.324-22.976,8.715-25.613,19.612C30.421,58.616,30.362,67.769,29.348,77.186z"/>
<path fill-rule="evenodd" clip-rule="evenodd" fill="#2C2C2C" d="M215.324,303.135c0.246,9.138,0.361,18.117-7.563,23.528
	c-3.866,2.641-9.084,4.451-13.74,4.563c-12.6,0.303-18.2-7.893-19.874-28.046c-1.84,0-3.756,0-5.672,0
	c-26.634,0-53.267,0.008-79.901-0.018c-1.814-0.002-4.182,0.406-5.315-0.542c-1.787-1.497-3.779-4.006-3.735-6.045
	c0.037-1.72,2.697-3.567,4.496-4.979c0.735-0.577,2.257-0.181,3.421-0.181c45.444-0.005,90.888-0.004,136.331-0.004
	c0.833,0,1.666-0.02,2.497,0.017c3.488,0.15,5.744,1.897,5.977,5.417c0.254,3.832-2.053,5.938-5.673,6.229
	C223.103,303.353,219.594,303.135,215.324,303.135z M203.235,305.555c-5.941,0-11.335,0-16.761,0
	c-0.373,5.221-1.185,10.577,4.288,12.946c2.482,1.073,6.402,0.907,8.803-0.351C204.511,315.559,203.639,310.439,203.235,305.555z"/>
<path fill-rule="evenodd" clip-rule="evenodd" fill="#2C2C2C" d="M97.92,213.374c-2.438-4.101-9.726-7.246-4.235-12.871
	c5.862-6.006,8.94,1.919,13.012,4.083c4.171-2.449,6.767-9.45,13.014-4.315c3.152,2.59,2.146,5.39-4.259,13.068
	c2.3,4.108,10.259,7.502,3.794,13.331c-5.582,5.033-8.463-2.168-12.474-4.477c-4.186,1.998-7.21,10.079-13.094,4.007
	C88.219,220.566,95.487,217.431,97.92,213.374z"/>
<path fill-rule="evenodd" clip-rule="evenodd" fill="#2C2C2C" d="M202.728,204.586c7.903-6.619,10.118-7.322,13.1-4.278
	c2.738,2.795,1.991,5.096-4.404,13.188c2.489,3.898,9.933,7.199,4.077,12.922c-5.701,5.572-8.691-2.007-12.796-4.222
	c-4.185,2.161-7.273,10.099-13.118,3.912c-5.185-5.489,1.569-8.57,4.241-12.545c-1.92-4.3-10.192-7.626-3.719-13.484
	C195.716,195.002,198.572,202.175,202.728,204.586z"/>
<path fill-rule="evenodd" clip-rule="evenodd" fill="#2C2C2C" d="M154.68,488.327c-8.861-0.083-15.682-7.097-15.582-16.023
	c0.098-8.772,7.322-15.878,15.999-15.737c8.723,0.143,15.721,7.385,15.607,16.154C170.59,481.602,163.599,488.41,154.68,488.327z"/>
<path fill-rule="evenodd" clip-rule="evenodd" fill="#2C2C2C" d="M167.751,62.279c-8.497,0-16.993-0.049-25.49,0.021
	c-4.058,0.034-6.911-1.447-7.329-5.742c-0.357-3.665,2.636-6.04,7.461-6.051c16.828-0.04,33.655-0.039,50.482-0.002
	c5.06,0.012,7.685,2.077,7.493,5.938c-0.239,4.819-3.506,5.876-7.626,5.851C184.412,62.244,176.082,62.279,167.751,62.279z"/>
<path fill-rule="evenodd" clip-rule="evenodd" fill="#2C2C2C" d="M114.423,62.408c-3.306-0.145-5.577-2.17-5.867-6.037
	c-0.259-3.446,2.695-6.309,6.234-6.24c3.738,0.072,5.8,2.219,6.239,5.763C121.445,59.241,118.493,62.267,114.423,62.408z"/>
</svg>
