<?xml version="1.0" encoding="UTF-8" standalone="no"?>
<!-- Generator: Adobe Illustrator 19.0.0, SVG Export Plug-In . SVG Version: 6.00 Build 0)  -->

<svg
   xmlns:dc="http://purl.org/dc/elements/1.1/"
   xmlns:cc="http://creativecommons.org/ns#"
   xmlns:rdf="http://www.w3.org/1999/02/22-rdf-syntax-ns#"
   xmlns:svg="http://www.w3.org/2000/svg"
   xmlns="http://www.w3.org/2000/svg"
   xmlns:sodipodi="http://sodipodi.sourceforge.net/DTD/sodipodi-0.dtd"
   xmlns:inkscape="http://www.inkscape.org/namespaces/inkscape"
   version="1.1"
   id="Layer_1"
   x="0px"
   y="0px"
   viewBox="0 0 512.00024 375.17392"
   xml:space="preserve"
   sodipodi:docname="farmer-visit.svg"
   inkscape:version="0.92.2 (5c3e80d, 2017-08-06)"
   width="512.00024"
   height="375.17392"><metadata
     id="metadata91"><rdf:RDF><cc:Work
         rdf:about=""><dc:format>image/svg+xml</dc:format><dc:type
           rdf:resource="http://purl.org/dc/dcmitype/StillImage" /><dc:title></dc:title></cc:Work></rdf:RDF></metadata><defs
     id="defs89" /><sodipodi:namedview
     pagecolor="#ffffff"
     bordercolor="#666666"
     borderopacity="1"
     objecttolerance="10"
     gridtolerance="10"
     guidetolerance="10"
     inkscape:pageopacity="0"
     inkscape:pageshadow="2"
     inkscape:window-width="1920"
     inkscape:window-height="1001"
     id="namedview87"
     showgrid="false"
     inkscape:snap-global="false"
     inkscape:zoom="0.4609375"
     inkscape:cx="-587.02835"
     inkscape:cy="130.2716"
     inkscape:window-x="-9"
     inkscape:window-y="-9"
     inkscape:window-maximized="1"
     inkscape:current-layer="Layer_1"
     fit-margin-top="0"
     fit-margin-left="0"
     fit-margin-right="0"
     fit-margin-bottom="0" /><g
     id="g18"
     transform="translate(0,-58.076271)"><g
       id="g16"><path
         d="m 241.894,371.885 -28.125,-78.92 c -11.212,-2.536 -39.582,-8.953 -50.494,-11.421 -7.757,-1.754 -13.171,-8.352 -13.807,-15.876 l -4.263,-51.105 17.546,46.043 c 1.627,4.27 5.283,7.44 9.74,8.449 l 49.793,11.263 c 7.342,1.662 14.653,-2.943 16.318,-10.298 1.662,-7.349 -2.948,-14.655 -10.298,-16.318 l -42.659,-9.649 -14.941,-39.207 15.111,20.088 2.531,-18.204 c 1.449,-10.422 -5.825,-20.045 -16.247,-21.494 l -32.11,-4.464 c -10.993,-1.528 -20.979,6.642 -21.642,17.735 l -4.207,70.411 c 14.074,0.449 26.034,11.192 27.603,25.593 1.12,10.281 -3.346,20.158 -11.44,26.176 h 36.013 v 62.145 c 0,6.028 4.887,10.915 10.915,10.915 6.028,0 10.915,-4.887 10.915,-10.915 v -64.225 l 22.902,64.269 c 3.038,8.529 12.413,12.959 20.918,9.926 8.52,-3.034 12.964,-12.4 9.928,-20.917 z"
         id="path14"
         inkscape:connector-curvature="0" /></g></g><g
     id="g24"
     transform="translate(0,-58.076271)"><g
       id="g22"><circle
         cx="165.496"
         cy="141.425"
         r="28.202999"
         id="circle20" /></g></g><g
     id="g30"
     transform="translate(0,-58.076271)"><g
       id="g28"><circle
         cx="445.621"
         cy="105.927"
         r="27.177"
         id="circle26" /></g></g><g
     id="g36"
     transform="translate(0,-58.076271)"><g
       id="g34"><path
         d="M 152.149,410.698 121.721,325.31 c -0.122,-0.062 -0.2,-0.101 -0.322,-0.163 -1.637,0.487 -3.338,0.839 -5.097,1.031 l -31.769,3.462 c -15.788,1.72 -17.034,1.857 -27.038,2.946 -16.251,1.771 -29.424,-13.183 -25.374,-29.259 l 14.655,-57.272 v 57.273 c 0,8.375 7.281,14.891 15.592,13.985 l 52.345,-5.704 c 7.723,-0.842 13.302,-7.785 12.46,-15.509 -0.842,-7.723 -7.777,-13.305 -15.509,-12.461 l -36.753,4.005 v -41.589 l 6.684,26.116 11.096,-1.21 4.248,-30.551 C 98.433,229.664 90.933,219.742 80.187,218.248 L 47.522,213.706 C 35.028,211.969 25.416,221.052 24.766,231.93 22.081,276.367 19.853,335.4 19.853,335.4 H 11.255 C 5.039,335.402 0,340.44 0,346.655 v 74.957 c 0,6.196 4.848,11.512 11.043,11.625 6.312,0.115 11.464,-4.967 11.464,-11.252 v -64.077 h 51.717 v 63.704 c 0,6.196 4.848,11.512 11.043,11.625 6.312,0.115 11.464,-4.967 11.464,-11.252 v -66.219 l 23.614,66.265 c 3.128,8.777 12.779,13.365 21.569,10.236 8.782,-3.131 13.365,-12.788 10.235,-21.569 z"
         id="path32"
         inkscape:connector-curvature="0" /></g></g><g
     id="g42"
     transform="translate(0,-58.076271)"><g
       id="g40"><circle
         cx="73.371002"
         cy="173.073"
         r="29.084"
         id="circle38" /></g></g><g
     id="g54"
     transform="translate(0,-58.076271)"><g
       id="g52"><path
         d="M 509.469,191.903 477.23,149.708 c -3.313,-5.114 -8.834,-8.471 -15.093,-8.471 h -32.74 c -10.139,0 -18.358,8.791 -18.358,19.634 v 7.852 l 20.095,-16.398 -27.11,37.087 c -0.427,-0.019 -41.861,-1.879 -42.289,-1.879 -6.699,0 -12.308,5.579 -12.062,12.521 0.222,6.251 5.22,11.343 11.532,11.625 l 48.21,2.156 c 3.979,0.178 7.937,-1.719 10.291,-4.939 l 29.937,-40.955 -19.258,45.476 c -1.885,4.453 -9.013,11.514 -19.345,11.992 0,0 -0.372,-0.273 -0.372,161.475 0,8.451 6.85,15.301 15.301,15.301 8.451,0 15.301,-6.85 15.301,-15.301 v -115.41 h 8.709 v 115.412 c 0,8.451 6.85,15.301 15.301,15.301 8.451,0 15.301,-6.85 15.301,-15.301 V 261.693 c 4.921,-0.036 9.55,-3.035 11.42,-7.908 l 19.182,-49.986 c 1.532,-3.994 0.882,-8.497 -1.714,-11.896 z m -28.975,23.071 v -20.397 l 5.21,6.819 z"
         id="path50"
         inkscape:connector-curvature="0" /></g></g><g
     id="g56"
     transform="translate(0,-58.076271)" /><g
     id="g58"
     transform="translate(0,-58.076271)" /><g
     id="g60"
     transform="translate(0,-58.076271)" /><g
     id="g62"
     transform="translate(0,-58.076271)" /><g
     id="g64"
     transform="translate(0,-58.076271)" /><g
     id="g66"
     transform="translate(0,-58.076271)" /><g
     id="g68"
     transform="translate(0,-58.076271)" /><g
     id="g70"
     transform="translate(0,-58.076271)" /><g
     id="g72"
     transform="translate(0,-58.076271)" /><g
     id="g74"
     transform="translate(0,-58.076271)" /><g
     id="g76"
     transform="translate(0,-58.076271)" /><g
     id="g78"
     transform="translate(0,-58.076271)" /><g
     id="g80"
     transform="translate(0,-58.076271)" /><g
     id="g82"
     transform="translate(0,-58.076271)" /><g
     id="g84"
     transform="translate(0,-58.076271)" /><rect
     style="fill:#18a125;fill-opacity:1;stroke:#ffffff"
     id="rect945"
     width="2.1694915"
     height="8.6779661"
     x="245.15254"
     y="0.5" /><rect
     style="fill:#ffffff;fill-opacity:1;stroke:#000000;stroke-width:17.59300041;stroke-miterlimit:4;stroke-dasharray:none;stroke-opacity:1"
     id="rect947"
     width="111.14162"
     height="122.97802"
     x="223.50398"
     y="37.863815" /><g
     id="g1010"
     transform="matrix(0.18714811,0,0,0.22098405,230.39077,44.517509)"><g
       id="g953"><g
         id="g951"><path
           id="path949"
           d="M 489.739,0 H 22.261 C 9.984,0 0,9.984 0,22.261 V 489.739 C 0,502.016 9.984,512 22.25,512 H 489.739 C 502.016,512 512,502.016 512,489.739 V 22.261 C 512,9.984 502.016,0 489.739,0 Z M 178.087,356.174 V 244.87 h 155.826 v 111.304 z m 155.826,22.261 V 489.739 H 178.087 V 378.435 Z m 0,-267.131 V 222.608 H 178.087 V 111.304 Z m 155.826,0 V 222.608 H 356.174 V 111.304 Z M 155.826,222.609 H 22.261 V 111.304 H 155.826 Z M 22.261,244.87 H 155.826 V 356.174 H 22.261 Z m 333.913,0 H 489.739 V 356.174 H 356.174 Z M 489.739,22.261 V 89.044 H 22.261 V 22.261 Z M 22.261,378.435 H 155.826 V 489.739 H 22.261 Z M 356.174,489.739 V 378.435 h 133.565 v 111.304 z"
           style="fill:#231f20"
           inkscape:connector-curvature="0" /></g></g><g
       id="g955" /><g
       id="g957" /><g
       id="g959" /><g
       id="g961" /><g
       id="g963" /><g
       id="g965" /><g
       id="g967" /><g
       id="g969" /><g
       id="g971" /><g
       id="g973" /><g
       id="g975" /><g
       id="g977" /><g
       id="g979" /><g
       id="g981" /><g
       id="g983" /></g></svg>